#N canvas 50 22 1390 856 12;
#X obj 328 622 r MAGS;
#X obj 2214 101 loadbang;
#X obj 2112 161 bng 40 250 50 0 empty empty empty 17 7 0 10 -262130
-1 -1;
#X obj 2112 212 s fileLoad;
#X msg 372 71 start;
#X msg 402 99 stop;
#X obj 420 125 r fileLoad;
#X obj 367 148 Songbird;
#X obj 329 344 r HDD;
#X msg 376 344 start;
#X msg 405 366 stop;
#X obj 423 473 s HDD;
#X obj 423 393 r fileLoad;
#X obj 370 419 Songbird;
#X obj 334 71 r EM;
#X obj 420 203 s EM;
#X msg 381 622 start;
#X msg 411 647 stop;
#X obj 429 673 r fileLoad;
#X obj 376 701 Songbird;
#X obj 429 754 s MAGS;
#X msg 781 71 start;
#X msg 811 99 stop;
#X obj 829 125 r fileLoad;
#X obj 776 148 Songbird;
#X obj 737 71 r SGD;
#X obj 829 203 s SGD;
#X msg 789 344 start;
#X msg 819 366 stop;
#X obj 846 393 r fileLoad;
#X obj 793 419 Songbird;
#X obj 749 344 r TR;
#X obj 846 473 s TR;
#X msg 784 622 start;
#X msg 814 647 stop;
#X obj 832 673 r fileLoad;
#X obj 779 701 Songbird;
#X msg 788 887 start;
#X msg 819 915 stop;
#X obj 837 941 r fileLoad;
#X obj 784 964 Songbird;
#X obj 731 622 r WOPC;
#X obj 832 754 s WOPC;
#X obj 837 1019 s ROV;
#X obj 734 887 r ROV;
#X obj 2093 1327 dac~;
#X obj 468 203 print EM;
#X obj 331 226 s~ EMl;
#X obj 393 226 s~ EMr;
#X obj 334 497 s~ HDDl;
#X obj 396 497 s~ HDDr;
#X obj 2093 1206 expr~ $v1+$v2+$v3+$v4+$v5+$v6+$v7+$v8;
#X obj 2765 1201 expr~ $v1+$v2+$v3+$v4+$v5+$v6+$v7+$v8;
#X obj 2095 960 r~ EMl;
#X obj 2766 955 r~ EMr;
#X obj 2129 987 r~ HDDl;
#X obj 2801 982 r~ HDDr;
#X obj 340 779 s~ MAGSl;
#X obj 402 779 s~ MAGSr;
#X obj 740 226 s~ SGDl;
#X obj 802 226 s~ SGDr;
#X obj 2202 1044 r~ MGDl;
#X obj 2873 1039 r~ MGDr;
#X obj 2167 1016 r~ MAGSl;
#X obj 2838 1011 r~ MAGSr;
#X obj 2239 1072 r~ SGDl;
#X obj 2910 1067 r~ SGDr;
#X obj 757 497 s~ TRl;
#X obj 819 497 s~ TRr;
#X obj 746 779 s~ WOPCl;
#X obj 808 779 s~ WOPCr;
#X obj 748 1042 s~ ROVl;
#X obj 810 1042 s~ ROVr;
#X obj 2276 1103 r~ TRl;
#X obj 2946 1098 r~ TRr;
#X obj 2312 1135 r~ WOPCl;
#X obj 2983 1130 r~ WOPCr;
#X obj 2349 1166 r~ ROVl;
#X obj 3021 1171 r~ ROVr;
#X obj 3623 1449 bng 15 250 50 0 empty empty empty 17 7 0 10 -262144
-1 -1;
#X text 3533 1424 Very Important;
#X obj 2648 341 list trim;
#X obj 2648 431 tgl 15 0 empty empty empty 17 7 0 10 -262144 -1 -1
0 1;
#X obj 2688 431 tgl 15 0 empty empty empty 17 7 0 10 -262144 -1 -1
0 1;
#X obj 2728 431 tgl 15 0 empty empty empty 17 7 0 10 -262144 -1 -1
0 1;
#X obj 2768 431 tgl 15 0 empty empty empty 17 7 0 10 -262144 -1 -1
0 1;
#X obj 2808 431 tgl 15 0 empty empty empty 17 7 0 10 -262144 -1 -1
0 1;
#X obj 2848 431 tgl 15 0 empty empty empty 17 7 0 10 -262144 -1 -1
0 1;
#X obj 2888 431 tgl 15 0 empty empty empty 17 7 0 10 -262144 -1 -1
0 1;
#X obj 2928 431 tgl 15 0 empty empty empty 17 7 0 10 -262144 -1 -1
0 1;
#X obj 2648 315 r fromGUI;
#X obj 2648 625 s EMTgl;
#X obj 372 23 r EMTgl;
#X obj 372 47 route 1 0;
#X obj 2648 391 route /EMTgl /HDDTgl /MAGSTgl /MGDTgl /SGDTgl /TRTgl
/WOPCTgl /ROVTgl /Clear;
#X obj 2112 101 r Clear;
#X obj 2968 431 s Clear;
#X obj 2098 807 s toGUI;
#X obj 2112 131 route 1;
#X msg 2270 523 list /EMTgl 0;
#X obj 2110 321 r fileLoad;
#X msg 2270 446 list /HDDTgl 0;
#X msg 2270 497 list /MAGSTgl 0;
#X msg 2270 471 list /MGDTgl 0;
#X msg 2269 370 list /WOPCTgl 0;
#X msg 2270 397 list /TRTgl 0;
#X msg 2269 345 list /ROVTgl 0;
#X text 2107 265 On Clear Button press reset GUI toggles to 0 This
also loads the files into readsf~ objects at sample offset 0;
#X msg 2214 131 1;
#X obj 2214 161 s Clear;
#X text 2106 1 Clear Button Routing to reset playback position and
stop playback of all files. Also resets the GUI. This also occurs at
startup.;
#X text 2092 879 Stereo Channel Summing into a single Stereo dac~ output.
Receives a left and right channel input from every Songbird circuit
and sums them using expr~. Sound is attenuated and sent to the dac~.
;
#X obj 2688 601 s HDDTgl;
#X obj 2728 578 s MAGSTgl;
#X obj 2808 530 s SGDTgl;
#X obj 2848 506 s TRTgl;
#X obj 2888 482 s WOPCTgl;
#X obj 2928 457 s ROVTgl;
#X text 2649 260 Receives information on Toggle and Button presses
on the GUI and routes information to the appropriate location.;
#X obj 376 318 route 1 0;
#X obj 376 294 r HDDTgl;
#X obj 381 598 route 1 0;
#X obj 381 574 r MAGSTgl;
#X obj 781 47 route 1 0;
#X obj 781 23 r SGDTgl;
#X obj 789 318 route 1 0;
#X obj 784 598 route 1 0;
#X obj 788 863 route 1 0;
#X obj 784 574 r WOPCTgl;
#X obj 788 839 r ROVTgl;
#X text -147 17 Songbird operator circuits are the main sound controllers
of the patch. Each Songbird contains a readsf~ and a SampleCounter
patch. Together these are responsible for playing the appropriate sound
file when the relative toggle is pressed on the GUI. The patch also
remembers the time position of the playback \, which is stored when
when playback is paused. This way playback resumes from the previous
position rather than from the beginning. Playback is looping. The clear
command resets all songbirds to the beginning and stops all playback.
;
#X obj 789 294 r TRTgl;
#X obj 2768 554 s MGDTgl;
#X obj 3048 429 tgl 15 0 empty empty empty 17 7 0 10 -262144 -1 -1
0 1;
#X obj 3092 429 tgl 15 0 empty empty empty 17 7 0 10 -262144 -1 -1
0 1;
#X obj 3137 429 tgl 15 0 empty empty empty 17 7 0 10 -262144 -1 -1
0 1;
#X obj 3182 429 tgl 15 0 empty empty empty 17 7 0 10 -262144 -1 -1
0 1;
#X obj 3227 429 tgl 15 0 empty empty empty 17 7 0 10 -262144 -1 -1
0 1;
#X obj 3271 429 tgl 15 0 empty empty empty 17 7 0 10 -262144 -1 -1
0 1;
#X obj 3316 429 tgl 15 0 empty empty empty 17 7 0 10 -262144 -1 -1
0 1;
#X obj 3361 429 tgl 15 0 empty empty empty 17 7 0 10 -262144 -1 -1
0 1;
#X msg 2270 551 list /ROVsTgl 0;
#X msg 2270 576 list /WOPCsTgl 0;
#X msg 2270 603 list /TRsTgl 0;
#X msg 2270 652 list /HDDsTgl 0;
#X msg 2270 677 list /MGDsTgl 0;
#X msg 2270 703 list /MAGSsTgl 0;
#X msg 2270 729 list /EMsTgl 0;
#X obj 3048 623 s EMsTgl;
#X obj 3093 599 s HDDsTgl;
#X obj 3137 576 s MAGSsTgl;
#X obj 3182 552 s MGDsTgl;
#X obj 3227 528 s SGDsTgl;
#X obj 3271 504 s TRsTgl;
#X obj 3316 480 s WOPCsTgl;
#X obj 3361 455 s ROVsTgl;
#X msg 385 887 start;
#X msg 415 915 stop;
#X obj 433 941 r fileLoad;
#X obj 380 964 Songbird;
#X obj 340 887 r MGD;
#X obj 433 1019 s MGD;
#X obj 344 1042 s~ MGDl;
#X obj 406 1042 s~ MGDr;
#X obj 385 863 route 1 0;
#X obj 385 839 r MGDTgl;
#X obj -170 -5 bng 15 250 50 0 empty empty empty 17 7 0 10 -262144
-1 -1;
#X msg 1183 71 start;
#X msg 1213 99 stop;
#X obj 1231 125 r fileLoad;
#X obj 1178 148 Songbird;
#X msg 1186 344 start;
#X msg 1215 366 stop;
#X obj 1233 393 r fileLoad;
#X obj 1180 419 Songbird;
#X msg 1192 622 start;
#X msg 1222 647 stop;
#X obj 1240 673 r fileLoad;
#X obj 1187 701 Songbird;
#X msg 1590 71 start;
#X msg 1620 99 stop;
#X obj 1638 125 r fileLoad;
#X obj 1585 148 Songbird;
#X msg 1599 344 start;
#X msg 1629 366 stop;
#X obj 1656 393 r fileLoad;
#X obj 1603 419 Songbird;
#X msg 1595 622 start;
#X msg 1625 647 stop;
#X obj 1643 673 r fileLoad;
#X obj 1590 701 Songbird;
#X msg 1599 887 start;
#X msg 1630 915 stop;
#X obj 1648 941 r fileLoad;
#X obj 1595 964 Songbird;
#X obj 1183 47 route 1 0;
#X obj 1186 318 route 1 0;
#X obj 1192 598 route 1 0;
#X obj 1590 47 route 1 0;
#X obj 1599 318 route 1 0;
#X obj 1595 598 route 1 0;
#X obj 1599 863 route 1 0;
#X msg 1196 887 start;
#X msg 1226 915 stop;
#X obj 1244 941 r fileLoad;
#X obj 1191 964 Songbird;
#X obj 1196 863 route 1 0;
#X obj 2427 1201 expr~ $v1+$v2+$v3+$v4+$v5+$v6+$v7+$v8;
#X obj 3087 1201 expr~ $v1+$v2+$v3+$v4+$v5+$v6+$v7+$v8;
#X obj 2429 955 r~ EMsl;
#X obj 2463 982 r~ HDDsl;
#X obj 2501 1011 r~ MAGSsl;
#X obj 2536 1039 r~ MGDsl;
#X obj 2573 1067 r~ SGDsl;
#X obj 2610 1098 r~ TRsl;
#X obj 2646 1130 r~ WOPCsl;
#X obj 2683 1161 r~ ROVsl;
#X obj 3088 955 r~ EMsr;
#X obj 3123 982 r~ HDDsr;
#X obj 3160 1011 r~ MAGSsr;
#X obj 3195 1039 r~ MGDsr;
#X obj 3232 1067 r~ SGDsr;
#X obj 3268 1098 r~ TRsr;
#X obj 3305 1130 r~ WOPCsr;
#X obj 3343 1171 r~ ROVsr;
#X obj 2093 1249 expr~ $v1+$v2;
#X obj 2765 1249 expr~ $v1+$v2;
#X obj 1183 23 r EMsTgl;
#X obj 1186 294 r HDDsTgl;
#X obj 1192 574 r MAGSsTgl;
#X obj 1595 574 r WOPCsTgl;
#X obj 1599 294 r TRsTgl;
#X obj 1590 23 r SGDsTgl;
#X obj 1599 839 r ROVsTgl;
#X obj 1196 839 r MGDsTgl;
#X msg 420 176 open Audio/Field/Electromagnetism.wav \$1;
#X msg 423 447 open Audio/Field/HangarDropsDry.wav \$1;
#X msg 429 728 open Audio/Field/MetalAndGlassShaking.wav \$1;
#X msg 433 992 open Audio/Field/MoreGlassDrops.wav \$1;
#X msg 837 992 open Audio/Field/RainOnVentilator.wav \$1;
#X msg 832 728 open Audio/Field/WaterOnPaintCan.wav \$1;
#X msg 846 447 open Audio/Field/TrainRummble.wav \$1;
#X msg 829 176 open Audio/Field/SomeGlassDrops.wav \$1;
#X obj 1135 71 r EMs;
#X obj 1142 226 s~ EMsl;
#X obj 1204 226 s~ EMsr;
#X obj 1231 203 s EMs;
#X obj 1279 203 print EMs;
#X obj 1144 497 s~ HDDsl;
#X obj 1206 497 s~ HDDsr;
#X obj 1136 344 r HDDs;
#X obj 1233 473 s HDDs;
#X obj 1213 779 s~ MAGSsr;
#X obj 1139 779 s~ MAGSsl;
#X obj 1136 622 r MAGSs;
#X obj 1240 754 s MAGSs;
#X msg 1233 447 open Audio/Synth/HDDSynthed.wav \$1;
#X msg 1240 728 open Audio/Synth/MAGSSynthed.wav \$1;
#X obj 1244 1019 s MGDs;
#X obj 1217 1042 s~ MGDsr;
#X obj 1145 1042 s~ MGDsl;
#X obj 1143 887 r MGDs;
#X obj 1552 1042 s~ ROVsl;
#X obj 1621 1042 s~ ROVsr;
#X obj 1648 1019 s ROVs;
#X obj 1545 887 r ROVs;
#X msg 1244 992 open Audio/Synth/MGDSynthed.wav \$1;
#X msg 1638 176 open Audio/Synth/SGDSynthed.wav \$1;
#X msg 1643 728 open Audio/Synth/WOPCSynthed.wav \$1;
#X msg 1656 447 open Audio/Synth/TRSynthed.wav \$1;
#X obj 1656 473 s TRs;
#X obj 1629 497 s~ TRsr;
#X obj 1562 497 s~ TRsl;
#X obj 1554 344 r TRs;
#X obj 1543 226 s~ SGDsl;
#X obj 1611 226 s~ SGDsr;
#X obj 1638 203 s SGDs;
#X obj 1540 71 r SGDs;
#X obj 1529 622 r WOPCs;
#X obj 1544 779 s~ WOPCsl;
#X obj 1619 779 s~ WOPCsr;
#X msg 1648 992 open Audio/Synth/ROVSynthed.wav \$1;
#X obj 1643 754 s WOPCs;
#X obj 3406 576 line~;
#X obj 3406 603 *~ 0.7;
#X obj 2093 1285 *~;
#X obj 2765 1285 *~;
#X obj 3048 389 route /EMsTgl /HDDsTgl /MAGSsTgl /MGDsTgl /SGDsTgl
/TRsTgl /WOPCsTgl /ROVsTgl /Volume;
#X msg 3406 549 \$1 10;
#X msg 2270 421 list /SGDTgl 0;
#X msg 2270 627 list /SGDsTgl 0;
#X obj 3406 630 s~ Volume;
#X obj 2524 1231 r~ Volume;
#X msg 1231 176 open Audio/Synth/EMSynthed.wav \$1;
#X floatatom 3407 505 5 0 0 0 - - -;
#X floatatom 3314 695 5 0 0 0 - - -;
#X msg 2270 755 list /Volume 0.5;
#X connect 0 0 19 0;
#X connect 1 0 108 0;
#X connect 2 0 3 0;
#X connect 4 0 7 1;
#X connect 5 0 7 2;
#X connect 6 0 7 3;
#X connect 7 0 47 0;
#X connect 7 1 48 0;
#X connect 7 2 235 0;
#X connect 8 0 13 0;
#X connect 9 0 13 1;
#X connect 10 0 13 2;
#X connect 12 0 13 3;
#X connect 13 0 49 0;
#X connect 13 1 50 0;
#X connect 13 2 236 0;
#X connect 14 0 7 0;
#X connect 16 0 19 1;
#X connect 17 0 19 2;
#X connect 18 0 19 3;
#X connect 19 0 57 0;
#X connect 19 1 58 0;
#X connect 19 2 237 0;
#X connect 21 0 24 1;
#X connect 22 0 24 2;
#X connect 23 0 24 3;
#X connect 24 0 59 0;
#X connect 24 1 60 0;
#X connect 24 2 242 0;
#X connect 25 0 24 0;
#X connect 27 0 30 1;
#X connect 28 0 30 2;
#X connect 29 0 30 3;
#X connect 30 0 67 0;
#X connect 30 1 68 0;
#X connect 30 2 241 0;
#X connect 31 0 30 0;
#X connect 33 0 36 1;
#X connect 34 0 36 2;
#X connect 35 0 36 3;
#X connect 36 0 69 0;
#X connect 36 1 70 0;
#X connect 36 2 240 0;
#X connect 37 0 40 1;
#X connect 38 0 40 2;
#X connect 39 0 40 3;
#X connect 40 0 71 0;
#X connect 40 1 72 0;
#X connect 40 2 239 0;
#X connect 41 0 36 0;
#X connect 44 0 40 0;
#X connect 51 0 225 0;
#X connect 52 0 226 0;
#X connect 53 0 51 0;
#X connect 54 0 52 0;
#X connect 55 0 51 1;
#X connect 56 0 52 1;
#X connect 61 0 51 3;
#X connect 62 0 52 3;
#X connect 63 0 51 2;
#X connect 64 0 52 2;
#X connect 65 0 51 4;
#X connect 66 0 52 4;
#X connect 73 0 51 5;
#X connect 74 0 52 5;
#X connect 75 0 51 6;
#X connect 76 0 52 6;
#X connect 77 0 51 7;
#X connect 78 0 52 7;
#X connect 81 0 94 0;
#X connect 81 0 287 0;
#X connect 82 0 91 0;
#X connect 83 0 112 0;
#X connect 84 0 113 0;
#X connect 85 0 132 0;
#X connect 86 0 114 0;
#X connect 87 0 115 0;
#X connect 88 0 116 0;
#X connect 89 0 117 0;
#X connect 90 0 81 0;
#X connect 92 0 93 0;
#X connect 93 0 4 0;
#X connect 93 1 5 0;
#X connect 94 0 82 0;
#X connect 94 1 83 0;
#X connect 94 2 84 0;
#X connect 94 3 85 0;
#X connect 94 4 86 0;
#X connect 94 5 87 0;
#X connect 94 6 88 0;
#X connect 94 7 89 0;
#X connect 94 8 96 0;
#X connect 95 0 98 0;
#X connect 98 0 2 0;
#X connect 99 0 97 0;
#X connect 100 0 99 0;
#X connect 100 0 101 0;
#X connect 100 0 102 0;
#X connect 100 0 103 0;
#X connect 100 0 289 0;
#X connect 100 0 105 0;
#X connect 100 0 104 0;
#X connect 100 0 106 0;
#X connect 100 0 141 0;
#X connect 100 0 143 0;
#X connect 100 0 144 0;
#X connect 100 0 290 0;
#X connect 100 0 145 0;
#X connect 100 0 146 0;
#X connect 100 0 147 0;
#X connect 100 0 142 0;
#X connect 100 0 296 0;
#X connect 101 0 97 0;
#X connect 102 0 97 0;
#X connect 103 0 97 0;
#X connect 104 0 97 0;
#X connect 105 0 97 0;
#X connect 106 0 97 0;
#X connect 108 0 109 0;
#X connect 119 0 9 0;
#X connect 119 1 10 0;
#X connect 120 0 119 0;
#X connect 121 0 16 0;
#X connect 121 1 17 0;
#X connect 122 0 121 0;
#X connect 123 0 21 0;
#X connect 123 1 22 0;
#X connect 124 0 123 0;
#X connect 125 0 27 0;
#X connect 125 1 28 0;
#X connect 126 0 33 0;
#X connect 126 1 34 0;
#X connect 127 0 37 0;
#X connect 127 1 38 0;
#X connect 128 0 126 0;
#X connect 129 0 127 0;
#X connect 131 0 125 0;
#X connect 133 0 148 0;
#X connect 134 0 149 0;
#X connect 135 0 150 0;
#X connect 136 0 151 0;
#X connect 137 0 152 0;
#X connect 138 0 153 0;
#X connect 139 0 154 0;
#X connect 140 0 155 0;
#X connect 141 0 97 0;
#X connect 142 0 97 0;
#X connect 143 0 97 0;
#X connect 144 0 97 0;
#X connect 145 0 97 0;
#X connect 146 0 97 0;
#X connect 147 0 97 0;
#X connect 156 0 159 1;
#X connect 157 0 159 2;
#X connect 158 0 159 3;
#X connect 159 0 162 0;
#X connect 159 1 163 0;
#X connect 159 2 238 0;
#X connect 160 0 159 0;
#X connect 164 0 156 0;
#X connect 164 1 157 0;
#X connect 165 0 164 0;
#X connect 167 0 170 1;
#X connect 168 0 170 2;
#X connect 169 0 170 3;
#X connect 170 0 244 0;
#X connect 170 1 245 0;
#X connect 170 2 293 0;
#X connect 171 0 174 1;
#X connect 172 0 174 2;
#X connect 173 0 174 3;
#X connect 174 0 248 0;
#X connect 174 1 249 0;
#X connect 174 2 256 0;
#X connect 175 0 178 1;
#X connect 176 0 178 2;
#X connect 177 0 178 3;
#X connect 178 0 253 0;
#X connect 178 1 252 0;
#X connect 178 2 257 0;
#X connect 179 0 182 1;
#X connect 180 0 182 2;
#X connect 181 0 182 3;
#X connect 182 0 274 0;
#X connect 182 1 275 0;
#X connect 182 2 267 0;
#X connect 183 0 186 1;
#X connect 184 0 186 2;
#X connect 185 0 186 3;
#X connect 186 0 272 0;
#X connect 186 1 271 0;
#X connect 186 2 269 0;
#X connect 187 0 190 1;
#X connect 188 0 190 2;
#X connect 189 0 190 3;
#X connect 190 0 279 0;
#X connect 190 1 280 0;
#X connect 190 2 268 0;
#X connect 191 0 194 1;
#X connect 192 0 194 2;
#X connect 193 0 194 3;
#X connect 194 0 262 0;
#X connect 194 1 263 0;
#X connect 194 2 281 0;
#X connect 195 0 167 0;
#X connect 195 1 168 0;
#X connect 196 0 171 0;
#X connect 196 1 172 0;
#X connect 197 0 175 0;
#X connect 197 1 176 0;
#X connect 198 0 179 0;
#X connect 198 1 180 0;
#X connect 199 0 183 0;
#X connect 199 1 184 0;
#X connect 200 0 187 0;
#X connect 200 1 188 0;
#X connect 201 0 191 0;
#X connect 201 1 192 0;
#X connect 202 0 205 1;
#X connect 203 0 205 2;
#X connect 204 0 205 3;
#X connect 205 0 260 0;
#X connect 205 1 259 0;
#X connect 205 2 266 0;
#X connect 206 0 202 0;
#X connect 206 1 203 0;
#X connect 207 0 225 1;
#X connect 208 0 226 1;
#X connect 209 0 207 0;
#X connect 210 0 207 1;
#X connect 211 0 207 2;
#X connect 212 0 207 3;
#X connect 213 0 207 4;
#X connect 214 0 207 5;
#X connect 215 0 207 6;
#X connect 216 0 207 7;
#X connect 217 0 208 0;
#X connect 218 0 208 1;
#X connect 219 0 208 2;
#X connect 220 0 208 3;
#X connect 221 0 208 4;
#X connect 222 0 208 5;
#X connect 223 0 208 6;
#X connect 224 0 208 7;
#X connect 225 0 285 0;
#X connect 226 0 286 0;
#X connect 227 0 195 0;
#X connect 228 0 196 0;
#X connect 229 0 197 0;
#X connect 230 0 200 0;
#X connect 231 0 199 0;
#X connect 232 0 198 0;
#X connect 233 0 201 0;
#X connect 234 0 206 0;
#X connect 235 0 15 0;
#X connect 235 0 46 0;
#X connect 236 0 11 0;
#X connect 237 0 20 0;
#X connect 238 0 161 0;
#X connect 239 0 43 0;
#X connect 240 0 42 0;
#X connect 241 0 32 0;
#X connect 242 0 26 0;
#X connect 243 0 170 0;
#X connect 250 0 174 0;
#X connect 254 0 178 0;
#X connect 256 0 251 0;
#X connect 257 0 255 0;
#X connect 261 0 205 0;
#X connect 265 0 194 0;
#X connect 266 0 258 0;
#X connect 267 0 276 0;
#X connect 268 0 282 0;
#X connect 269 0 270 0;
#X connect 273 0 186 0;
#X connect 277 0 182 0;
#X connect 278 0 190 0;
#X connect 281 0 264 0;
#X connect 283 0 284 0;
#X connect 284 0 291 0;
#X connect 285 0 45 0;
#X connect 286 0 45 1;
#X connect 287 0 133 0;
#X connect 287 1 134 0;
#X connect 287 2 135 0;
#X connect 287 3 136 0;
#X connect 287 4 137 0;
#X connect 287 5 138 0;
#X connect 287 6 139 0;
#X connect 287 7 140 0;
#X connect 287 8 294 0;
#X connect 288 0 283 0;
#X connect 289 0 97 0;
#X connect 290 0 97 0;
#X connect 292 0 285 1;
#X connect 292 0 286 1;
#X connect 293 0 246 0;
#X connect 293 0 247 0;
#X connect 294 0 288 0;
#X connect 296 0 97 0;
